<?xml version="1.0" encoding="utf-8"?>
<!-- Generator: Adobe Illustrator 19.0.1, SVG Export Plug-In . SVG Version: 6.00 Build 0)  -->
<svg version="1.1" id="Icon" xmlns="http://www.w3.org/2000/svg" xmlns:xlink="http://www.w3.org/1999/xlink" x="0px" y="0px"
	 enable-background="new 0 0 250 250" xml:space="preserve">
<pattern  x="-3860" y="9275" width="69" height="69" patternUnits="userSpaceOnUse" id="Òî_xF7_å_xF7_íûé_óçîð__x22_Ïîëüêà_x22_" viewBox="2.1 -70.9 69 69" overflow="visible">
		  <path
            d="M47.5,0.5H35.8c-0.7,0-1.3,0.5-1.8,1.4c-0.5,1-0.8,2-0.8,3.2v2.3l-3.9-6.9H13.6L0.5,16.6v36.7l19.6,11.5h10.5
          l2.6-6.9v13.8H21.4L7,62.4H3.1c-0.7,0-1.3,0.5-1.8,1.4c-0.5,1-0.8,2-0.8,3.2v27.5c0,1.1,0.3,2.2,0.8,3.2c0.5,1,1.1,1.4,1.8,1.4
          h13.1c0.7,0,1.3-0.5,1.8-1.4c0.5-1,0.8-2,0.8-3.2v-2.3l3.9,6.9h14.4l13.1-22.9V46.4L30.6,32.6H20.1l-2.6,9.2V28h13.1l13.1,9.2h3.9
          c0.7,0,1.3-0.5,1.8-1.4c0.5-1,0.8-2,0.8-3.2V5.1c0-1.1-0.3-2.2-0.8-3.2C48.8,1,48.2,0.5,47.5,0.5z"
          />
          <path
            d="M93.3,0.5H72.4l-3.9,4.2c-0.1-1-0.3-1.9-0.8-2.7c-0.5-1-1.1-1.4-1.8-1.4H55.4c-0.7,0-1.3,0.5-1.8,1.4
          c-0.5,1-0.8,2-0.8,3.2v20.6c0,1.1,0.3,2.2,0.8,3.2c0.5,1,1.1,1.4,1.8,1.4H57l-4.3,6.9v34.4l12.4,27.5h3.3h24.8
          c0.7,0,1.3-0.5,1.8-1.4c0.5-1,0.8-2,0.8-3.2V73.9c0-1.1-0.3-2.2-0.8-3.2c-0.5-1-1.1-1.4-1.8-1.4H68.4V45.9L75,62.4h17
          c0.7,0,1.3-0.5,1.8-1.4c0.5-1,0.8-2,0.8-3.2V39.5c0-1.1-0.3-2.2-0.8-3.2c-0.5-1-1.1-1.4-1.8-1.4H72.4l-2.2-4.6h23.1
          c0.7,0,1.3-0.5,1.8-1.4c0.5-1,0.8-2,0.8-3.2V5.1c0-1.1-0.3-2.2-0.8-3.2C94.5,1,93.9,0.5,93.3,0.5z"
          />
          <path
            d="M122,0.5h-20.9c-0.7,0-1.3,0.5-1.8,1.4c-0.5,1-0.8,2-0.8,3.2V28c0,1.1,0.3,2.2,0.8,3.2c0.5,1,1.1,1.4,1.8,1.4
          h0.2l-2.8,11.5v50.5c0,1.1,0.3,2.2,0.8,3.2c0.5,1,1.1,1.4,1.8,1.4H122c0.7,0,1.3-0.5,1.8-1.4c0.5-1,0.8-2,0.8-3.2V78.5
          c0-1.1-0.3-2.2-0.8-3.2c-0.5-1-1.1-1.4-1.8-1.4h-1.3l3.9-11.5V5.1c0-1.1-0.3-2.2-0.8-3.2C123.3,1,122.7,0.5,122,0.5z"
          />
          <path
            d="M174.3,0.5h-11.8c-0.7,0-1.3,0.5-1.8,1.4c-0.5,1-0.8,2-0.8,3.2v2.3L156,0.5h-15.7l-13.1,16.1v36.7l19.6,11.5
          h10.5l2.6-6.9v13.8h-11.8l-14.4-9.2h-3.9c-0.7,0-1.3,0.5-1.8,1.4c-0.5,1-0.8,2-0.8,3.2v27.5c0,1.1,0.3,2.2,0.8,3.2
          c0.5,1,1.1,1.4,1.8,1.4h13.1c0.7,0,1.3-0.5,1.8-1.4c0.5-1,0.8-2,0.8-3.2v-2.3l3.9,6.9h14.4l13.1-22.9V46.4l-19.6-13.8h-10.5
          l-2.6,9.2V28h13.1l13.1,9.2h3.9c0.7,0,1.3-0.5,1.8-1.4c0.5-1,0.8-2,0.8-3.2V5.1c0-1.1-0.3-2.2-0.8-3.2C175.5,1,174.9,0.5,174.3,0.5
          z"
          />
          <path
            d="M221.3,0.5H190l-10.5,18.4v75.7c0,1.1,0.3,2.2,0.8,3.2c0.5,1,1.1,1.4,1.8,1.4h31.4l10.5-18.4V5.1
          c0-1.1-0.3-2.2-0.8-3.2C222.6,1,222,0.5,221.3,0.5z M209.6,69.3H203l-1.3-9.2h-7.8V30.3h6.5l1.3,9.2h7.8V69.3z"
          />
          <path
            d="M264.5,46.4H254l-10.5,18.4V46.4l5.3-9.3c0.4-0.8,0.8-1.6,0.9-2.4c0.2-0.8,0.3-1.9,0.3-3.1V5.1
          c0-1.1-0.3-2.2-0.8-3.2c-0.5-1-1.1-1.4-1.8-1.4h-18.3c-0.7,0-1.3,0.5-1.8,1.4c-0.5,1-0.8,2-0.8,3.2V28c0,1.1,0.3,2.2,0.8,3.2
          c0.5,1,1.1,1.4,1.8,1.4h0.2l-2.8,11.5v50.5c0,1.1,0.3,2.2,0.8,3.2c0.5,1,1.1,1.4,1.8,1.4h18.3l5.2-6.9v2.3c0,1.1,0.3,2.2,0.8,3.2
          c0.5,1,1.1,1.4,1.8,1.4h9.1c0.7,0,1.3-0.5,1.8-1.4c0.5-1,0.8-2,0.8-3.2V51c0-1.1-0.3-2.2-0.8-3.2C265.7,46.9,265.1,46.4,264.5,46.4
          z"
          />
          <path
            d="M311.5,0.5h-31.4l-10.5,18.4v75.7c0,1.1,0.3,2.2,0.8,3.2c0.5,1,1.1,1.4,1.8,1.4h31.4l10.5-18.4V5.1
          c0-1.1-0.3-2.2-0.8-3.2C312.7,1,312.1,0.5,311.5,0.5z M299.7,69.3h-6.5l-1.3-9.2h-7.8V30.3h6.5l1.3,9.2h7.8V69.3z"
          />
          <path
            d="M335,69.3h-14.4c-0.7,0-1.3,0.5-1.8,1.4c-0.5,1-0.8,2-0.8,3.2v20.6c0,1.1,0.3,2.2,0.8,3.2
          c0.5,1,1.1,1.4,1.8,1.4H335c0.7,0,1.3-0.5,1.8-1.4c0.5-1,0.8-2,0.8-3.2V73.9c0-1.1-0.3-2.2-0.8-3.2C336.3,69.8,335.7,69.3,335,69.3
          z"
          />
          <path
            d="M365.1,0.5h-20.9c-0.7,0-1.3,0.5-1.8,1.4c-0.5,1-0.8,2-0.8,3.2V28c0,1.1,0.3,2.2,0.8,3.2
          c0.5,1,1.1,1.4,1.8,1.4h0.2l-2.8,11.5v50.5c0,1.1,0.3,2.2,0.8,3.2c0.5,1,1.1,1.4,1.8,1.4h20.9c0.7,0,1.3-0.5,1.8-1.4
          c0.5-1,0.8-2,0.8-3.2V78.5c0-1.1-0.3-2.2-0.8-3.2c-0.5-1-1.1-1.4-1.8-1.4h-1.3l3.9-11.5V5.1c0-1.1-0.3-2.2-0.8-3.2
          C366.3,1,365.7,0.5,365.1,0.5z"
          />
          <path
            d="M413.9,1.9c-0.5-1-1.1-1.4-1.8-1.4h-31.4l-10.5,18.4v75.7c0,1.1,0.3,2.2,0.8,3.2c0.5,1,1.1,1.4,1.8,1.4h31.4
          l10.5-18.4V5.1C414.7,3.9,414.5,2.9,413.9,1.9z M400.3,69.3h-6.5l-1.3-9.2h-7.8V30.3h6.5l1.3,9.2h7.8V69.3z"
          />
        </g>
</svg>
