<svg xmlns="http://www.w3.org/2000/svg" viewBox="0 0 414.22 98.64"><defs><style>.cls-1{fill:#231f20;}</style></defs><g id="Layer_2" data-name="Layer 2"><g id="Layer_2-2" data-name="Layer 2"><path class="cls-1" d="M47,0H35.28c-.65,0-1.25.48-1.8,1.43a6.33,6.33,0,0,0-.81,3.16V6.88L28.75,0H13.07L0,16.06v36.7L19.6,64.23H30.05l2.62-6.88V71.11H20.91L6.53,61.94H2.61c-.65,0-1.25.48-1.79,1.43A6.22,6.22,0,0,0,0,66.52V94.05a6.23,6.23,0,0,0,.82,3.16c.54,1,1.14,1.43,1.79,1.43H15.68c.65,0,1.25-.48,1.8-1.43a6.33,6.33,0,0,0,.81-3.16V91.76l3.92,6.88H36.59L49.66,75.7V45.88L30.05,32.12H19.6L17,41.29V27.53H30.05L43.12,36.7H47c.66,0,1.25-.47,1.8-1.43a6.32,6.32,0,0,0,.82-3.15V4.59a6.33,6.33,0,0,0-.82-3.16C48.29.48,47.7,0,47,0Z"/><path class="cls-1" d="M92.78,0H71.87l-4,4.16a6.17,6.17,0,0,0-.79-2.73C66.59.48,66,0,65.34,0H54.88c-.65,0-1.25.48-1.8,1.43a6.33,6.33,0,0,0-.81,3.16V25.23a6.33,6.33,0,0,0,.81,3.16c.55.95,1.15,1.43,1.8,1.43h1.66L52.27,36.7V71.11L64.68,98.64h28.1c.65,0,1.25-.48,1.79-1.43a6.23,6.23,0,0,0,.82-3.16V73.41a6.23,6.23,0,0,0-.82-3.16c-.54-1-1.14-1.43-1.79-1.43H68V45.42l6.53,16.52h17q1,0,1.8-1.44a6.26,6.26,0,0,0,.81-3.15V39a6.33,6.33,0,0,0-.81-3.16c-.55-1-1.15-1.43-1.8-1.43H71.87l-2.18-4.59H92.78c.65,0,1.25-.48,1.79-1.43a6.23,6.23,0,0,0,.82-3.16V4.59a6.23,6.23,0,0,0-.82-3.16C94,.48,93.43,0,92.78,0Z"/><path class="cls-1" d="M121.52,0h-20.9c-.66,0-1.26.48-1.8,1.43A6.23,6.23,0,0,0,98,4.59V27.53a6.2,6.2,0,0,0,.82,3.15q.81,1.44,1.8,1.44h.18L98,43.58V94.05a6.23,6.23,0,0,0,.82,3.16c.54,1,1.14,1.43,1.8,1.43h20.9c.66,0,1.26-.48,1.8-1.43a6.33,6.33,0,0,0,.82-3.16V78a6.32,6.32,0,0,0-.82-3.15c-.54-1-1.14-1.43-1.8-1.43h-1.28l3.9-11.47V4.59a6.33,6.33,0,0,0-.82-3.16C122.78.48,122.18,0,121.52,0Z"/><path class="cls-1" d="M173.79,0H162c-.65,0-1.25.48-1.8,1.43a6.33,6.33,0,0,0-.81,3.16V6.88L155.5,0H139.82L126.75,16.06v36.7l19.6,11.47H156.8l2.62-6.88V71.11H147.66l-14.38-9.17h-3.92c-.65,0-1.25.48-1.79,1.43a6.22,6.22,0,0,0-.82,3.15V94.05a6.23,6.23,0,0,0,.82,3.16c.54,1,1.14,1.43,1.79,1.43h13.07c.65,0,1.25-.48,1.8-1.43a6.33,6.33,0,0,0,.81-3.16V91.76L149,98.64h14.38L176.41,75.7V45.88L156.8,32.12H146.35l-2.61,9.17V27.53H156.8l13.07,9.17h3.92c.66,0,1.25-.47,1.8-1.43a6.32,6.32,0,0,0,.82-3.15V4.59a6.33,6.33,0,0,0-.82-3.16C175,.48,174.45,0,173.79,0Z"/><path class="cls-1" d="M220.83,0H189.47L179,18.35v75.7a6.33,6.33,0,0,0,.81,3.16c.55,1,1.15,1.43,1.8,1.43H213l10.46-18.35V4.59a6.33,6.33,0,0,0-.82-3.16C222.08.48,221.49,0,220.83,0ZM209.07,68.82h-6.53l-1.31-9.18h-7.84V29.82h6.54l1.3,9.18h7.84Z"/><path class="cls-1" d="M264,45.88H253.5L243.05,64.23V45.88l5.29-9.29a9.24,9.24,0,0,0,.95-2.41,14.26,14.26,0,0,0,.29-3.1V4.59a6.23,6.23,0,0,0-.82-3.16C248.22.48,247.62,0,247,0h-18.3c-.65,0-1.25.48-1.79,1.43a6.23,6.23,0,0,0-.82,3.16V27.53a6.2,6.2,0,0,0,.82,3.15c.54,1,1.14,1.44,1.79,1.44h.19l-2.8,11.46V94.05a6.23,6.23,0,0,0,.82,3.16c.54,1,1.14,1.43,1.79,1.43H247l5.22-6.88v2.29a6.33,6.33,0,0,0,.82,3.16c.54,1,1.14,1.43,1.8,1.43H264c.66,0,1.26-.48,1.8-1.43a6.33,6.33,0,0,0,.82-3.16V50.47a6.33,6.33,0,0,0-.82-3.16C265.21,46.36,264.61,45.88,264,45.88Z"/><path class="cls-1" d="M311,0H279.63L269.18,18.35v75.7a6.23,6.23,0,0,0,.82,3.16c.54,1,1.14,1.43,1.79,1.43h31.36l10.46-18.35V4.59a6.23,6.23,0,0,0-.82-3.16C312.25.48,311.65,0,311,0ZM299.23,68.82H292.7l-1.31-9.18h-7.84V29.82h6.54l1.3,9.18h7.84Z"/><path class="cls-1" d="M334.52,68.82H320.14c-.65,0-1.25.48-1.8,1.43a6.33,6.33,0,0,0-.81,3.16V94.05a6.33,6.33,0,0,0,.81,3.16c.55,1,1.15,1.43,1.8,1.43h14.38c.65,0,1.25-.48,1.79-1.43a6.23,6.23,0,0,0,.82-3.16V73.41a6.23,6.23,0,0,0-.82-3.16C335.77,69.3,335.17,68.82,334.52,68.82Z"/><path class="cls-1" d="M364.57,0H343.66c-.65,0-1.25.48-1.8,1.43a6.33,6.33,0,0,0-.81,3.16V27.53a6.29,6.29,0,0,0,.81,3.15q.83,1.44,1.8,1.44h.19l-2.8,11.46V94.05a6.33,6.33,0,0,0,.81,3.16c.55,1,1.15,1.43,1.8,1.43h20.91c.65,0,1.25-.48,1.8-1.43a6.33,6.33,0,0,0,.81-3.16V78a6.32,6.32,0,0,0-.81-3.15c-.55-1-1.15-1.43-1.8-1.43h-1.29l3.9-11.47V4.59a6.33,6.33,0,0,0-.81-3.16C365.82.48,365.22,0,364.57,0Z"/><path class="cls-1" d="M413.41,1.43C412.86.48,412.26,0,411.61,0H380.25L369.79,18.35v75.7a6.33,6.33,0,0,0,.82,3.16c.55,1,1.14,1.43,1.8,1.43h31.36l10.45-18.35V4.59A6.33,6.33,0,0,0,413.41,1.43ZM399.85,68.82h-6.53L392,59.64h-7.84V29.82h6.53L392,39h7.84Z"/></g></g></svg>