<!-- Generator: Adobe Illustrator 24.1.1, SVG Export Plug-In  -->
<svg version="1.1" xmlns="http://www.w3.org/2000/svg" xmlns:xlink="http://www.w3.org/1999/xlink" x="0px" y="0px" width="496.4px"
	 height="495.7px" viewBox="0 0 496.4 495.7" style="enable-background:new 0 0 496.4 495.7;" xml:space="preserve">
<style type="text/css">
	.st0{fill:none;stroke:#FFF200;stroke-miterlimit:10;}
</style>
<defs>
</defs>
<g>
	<g>
		<g>
			<path class="st0" d="M493.7,249.5c0,12.8-4.1,24.9-6.1,37.1c-2,12.6,11.3,29.6,7.5,41.4c-3.9,12-9.5,25.8-15.1,36.9
				c-5.7,11.2-15.2,22.6-22.6,32.8c-7.4,10.2-28.2,9.8-37.1,18.7s-18.8,15.5-29,22.9c-10.1,7.4-20.6,12.7-31.8,18.4
				c-11.1,5.7-21.3,11.7-33.4,15.6c-11.8,3.8-24.7-2-37.3,0c-12.2,1.9-22.7,22-35.5,22c-12.8,0-26.2-1.3-38.4-3.3
				c-12.6-2-25.7-4.8-37.6-8.7c-12-3.9-17.3-23.2-28.4-28.9c-11.2-5.7-22.5-8.9-32.6-16.3c-10.2-7.4-28.7-5.2-37.5-14.1
				c-8.9-8.9-6.8-27.3-14.2-37.4c-7.4-10.1-10.9-21.2-16.7-32.5c-5.7-11.1-21.1-17.8-25-29.8c-3.8-11.8-15.9-23-17.9-35.6
				c-1.9-12.2-4.6-26.5-4.6-39.3c0-12.8,10.3-25.9,12.2-38.1c2-12.6,10.7-23.5,14.5-35.4c3.9-12,14.7-20.3,20.3-31.4
				c5.7-11.2-5.7-33.4,1.6-43.5c7.4-10.2,21.1-17,30-25.9c8.9-8.9,17.1-20.6,27.3-28c10.1-7.4,28.8-1.9,40-7.7
				c11.1-5.7,21.8-11.3,33.8-15.2c11.8-3.8,21.3-21.2,33.8-23.1c12.2-1.9,26.5,1,39.3,1c12.8,0,25.3,8.6,37.5,10.5
				c12.6,2,26.6-0.9,38.5,3c12,3.9,23.6,10.8,34.8,16.5c11.2,5.7,22.6,12.6,32.7,19.9c10.2,7.4,25.9,10.4,34.7,19.2
				c8.9,8.9,0.9,32.5,8.3,42.7c7.4,10.1,18.8,16.7,24.5,28c5.7,11.1,18.1,19.7,22.1,31.8c3.8,11.8-11.7,27.8-9.8,40.3
				C478.7,226.3,493.7,236.7,493.7,249.5z"/>
		</g>
		<g>
			<path class="st0" d="M487.3,249.5c0,12-7,24.2-8.8,35.7c-1.9,11.8,0.3,25.3-3.3,36.4c-3.7,11.3-25.6,14.7-31,25.1
				c-5.4,10.6,9.2,33.6,2.3,43.1c-7,9.6-32.9,3.2-41.2,11.6c-8.3,8.3-17,13.6-26.6,20.6c-9.5,6.9-17.6,12.8-28.1,18.2
				c-10.5,5.3-12.4,31.7-23.7,35.3c-11.1,3.6-26-2.8-37.8-1c-11.5,1.8-23.6,11.3-35.6,11.3c-12,0-23.2-15.5-34.7-17.3
				c-11.8-1.9-23.5-2-34.6-5.6c-11.3-3.7-27.1,1.7-37.5-3.6c-10.6-5.4-17.8-18.1-27.4-25c-9.6-7-9.8-24-18.1-32.4
				c-8.3-8.3-22.6-10.7-29.5-20.2c-6.9-9.5-10-21.1-15.4-31.6c-5.3-10.5-8.4-21.2-12.1-32.5c-3.6-11.1-2-22.4-3.8-34.2
				c-1.8-11.5-19.1-21.8-19.1-33.8c0-12-2-25.3-0.2-36.8c1.9-11.8,19.5-20.1,23.1-31.2c3.7-11.3-8.3-29.7-2.9-40.2
				c5.4-10.6,17.8-18.6,24.7-28.1c7-9.6,11.4-23.2,19.7-31.6c8.3-8.3,24.1-9.9,33.7-16.8c9.5-6.9,18-17.2,28.6-22.5
				c10.5-5.3,26.9,3.7,38.3,0c11.1-3.6,19-21.8,30.8-23.6c11.5-1.8,24.5,12.2,36.6,12.2c12,0,21.8,6.9,33.3,8.7
				c11.8,1.9,25.8-9.9,37-6.3c11.3,3.7,25.9,1.7,36.3,7c10.6,5.4,19.1,16.1,28.6,23.1c9.6,7,15.2,19,23.6,27.3
				c8.3,8.3,27.4,8.9,34.4,18.4c6.9,9.5,10.5,23.3,15.9,33.8c5.3,10.5,7.8,23.5,11.5,34.9c3.6,11.1-0.3,24.7,1.6,36.5
				C477.4,225.8,487.3,237.5,487.3,249.5z"/>
		</g>
		<g>
			<path class="st0" d="M469.4,249.5c0,12.5-7.4,24.5-9.5,36.4c-2.1,12.2,3.5,27.1-0.6,38.5c-4.2,11.6-17.4,19.8-23.5,30.3
				c-6.2,10.7-20.8,14.3-28.7,23.7c-7.9,9.4-4.6,29.6-14,37.5c-9.4,7.9-17.1,21.1-27.8,27.3c-10.6,6.1-28,0.4-39.7,4.7
				c-11.4,4.2-21.6,17.1-33.8,19.3c-11.9,2.1-25.9-5.7-38.4-5.7c-12.5,0-23-11.9-34.9-13.9c-12.2-2.1-24.6,1.1-36-3.1
				c-11.6-4.2-24.3-5.5-34.9-11.7c-10.7-6.2-13.2-22.4-22.5-30.3c-9.4-7.9-27.2-6.5-35.1-15.9c-7.9-9.4-24.2-14.5-30.4-25.2
				c-6.1-10.6-3.2-27-7.4-38.7c-4.2-11.4-0.8-25-2.9-37.2c-2.1-11.9-8.9-23.5-8.9-36c0-12.5,3.6-24.7,5.7-36.6
				c2.1-12.2-0.7-26.2,3.4-37.7c4.2-11.6,10.4-23.4,16.5-34c6.2-10.7,17.7-18.2,25.6-27.6c7.9-9.4,19.1-15.2,28.5-23.1
				c9.4-7.9,22.5-8.6,33.1-14.7c10.6-6.1,20.8-8.6,32.4-12.9c11.4-4.2,20-13.3,32.3-15.5c11.9-2.1,23.1-15.3,35.6-15.3
				c12.5,0,26.4-1.9,38.3,0.2c12.2,2.1,21.1,18.5,32.5,22.6c11.6,4.2,24,5.9,34.6,12c10.7,6.2,18.9,15.3,28.3,23.2
				c9.4,7.9,29.8,6.1,37.7,15.5c7.9,9.4,10.9,24.3,17.1,35c6.1,10.6-1.3,27.5,3,39.1c4.2,11.4,23.3,19.2,25.5,31.4
				C472.4,223.1,469.4,237,469.4,249.5z"/>
		</g>
		<g>
			<path class="st0" d="M440.7,249.5c0,11.7-1.1,21.4-3,32.5c-2,11.4,12.1,26.9,8.2,37.6c-3.9,10.8-26,12.9-31.7,22.8
				c-5.8,9.9,3.5,30.2-3.8,38.9c-7.4,8.8-19,14.9-27.8,22.3c-8.7,7.3-23.6,6-33.5,11.8c-9.8,5.7-14.4,23.9-25.2,27.9
				c-10.6,3.9-26.9-13.1-38.3-11.1c-11.1,1.9-20.6,16.2-32.2,16.2c-11.7,0-23.7,0.3-34.8-1.7c-11.4-2-22.5-6.6-33.2-10.5
				c-10.8-3.9-24.3-4.2-34.1-9.9c-9.9-5.8-14.7-19.8-23.5-27.2c-8.8-7.4-22.7-10.3-30.1-19c-7.3-8.7-18.4-16.8-24.2-26.8
				c-5.7-9.8-10.2-22.4-14.2-33.2c-3.9-10.6,2.3-25,0.3-36.4c-1.9-11.1-0.5-22.5-0.5-34.2c0-11.7-12.6-25-10.6-36.1
				c2-11.4,20.5-19,24.4-29.6c3.9-10.8,1.2-24.7,6.9-34.6c5.8-9.9,12.6-20,20-28.7c7.4-8.8,20.8-11.6,29.6-19
				c8.7-7.3,12.2-23,22.1-28.7c9.8-5.7,24.6-2.4,35.4-6.3c10.6-3.9,19.1-20,30.5-22c11.1-1.9,24.5,19.5,36.1,19.5
				c11.7,0,21.5-1.1,32.6,0.8c11.4,2,23.6-2.9,34.3,1c10.8,3.9,18.9,12.4,28.7,18.1c9.9,5.8,20.7,9.3,29.4,16.6
				c8.8,7.4,23.4,9.5,30.8,18.3c7.3,8.7,2.5,26.1,8.3,36c5.7,9.8,12.5,18.2,16.4,29c3.9,10.6,18.8,18.8,20.8,30.2
				C456.7,225.1,440.7,237.8,440.7,249.5z"/>
		</g>
		<g>
			<path class="st0" d="M433.3,249.5c0,12.2,1.6,24.1-0.7,35.6c-2.3,11.9-5.7,23.4-10.2,34.3c-4.6,11.1-5,25.3-11.6,35.2
				c-6.7,9.9-23.7,11.7-32.1,20.1c-8.4,8.4-12.7,21.6-22.7,28.3c-9.9,6.6-22.9,7.5-34,12.1c-10.9,4.5-19.6,19-31.4,21.3
				c-11.5,2.3-25,4.9-37.2,4.9c-12.2,0-25.1-5.6-36.6-7.9c-11.9-2.3-22.9-9.6-33.8-14.1c-11.1-4.6-25.4-5.2-35.2-11.8
				c-9.9-6.7-12-23.6-20.4-32.1c-8.4-8.4-27.6-8.9-34.3-18.9c-6.6-9.9-11.7-22.9-16.3-34c-4.5-10.9-8.2-24.1-10.6-35.9
				c-2.3-11.5,5.9-25,5.9-37.2c0-12.2,0.3-24,2.6-35.5c2.3-11.9,0.1-25.6,4.6-36.5c4.6-11.1,24.5-13.5,31.1-23.4
				c6.7-9.9,5.2-25.4,13.6-33.8c8.4-8.4,18.2-15.4,28.1-22.1c9.9-6.6,22.1-8,33.2-12.6c10.9-4.5,19.6-17.1,31.4-19.5
				c11.5-2.3,24.3,8.5,36.5,8.5c12.2,0,25.5-13.5,37-11.3c11.9,2.3,19.6,18.6,30.5,23.2c11.1,4.6,28.4-1.9,38.2,4.7
				c9.9,6.7,9,26.7,17.4,35.1c8.4,8.4,14.9,16.6,21.5,26.5c6.6,9.9,17.8,16.3,22.4,27.4c4.5,10.9,5.2,22.6,7.5,34.5
				C430.2,226.2,433.3,237.3,433.3,249.5z"/>
		</g>
		<g>
			<path class="st0" d="M420.3,249.5c0,12.8,8.3,27.4,5.6,39.4c-2.8,12.4-20.4,20.1-25.8,31.3c-5.5,11.4-0.6,29.9-8.4,39.6
				c-7.8,9.8-25,11.7-34.8,19.5c-9.8,7.8-16,22.7-27.4,28.2c-11.2,5.4-25.4,6.9-37.8,9.7c-12,2.7-25.4,6-38.3,6s-25.9-4.9-37.9-7.7
				c-12.4-2.8-24.8-7.3-35.9-12.7c-11.4-5.5-20.7-14.7-30.5-22.5c-9.8-7.8-23.6-12.7-31.4-22.6c-7.8-9.8-18.3-20.1-23.8-31.4
				c-5.4-11.2-2.7-26.8-5.5-39.2c-2.7-12,1.9-24.8,1.9-37.7c0-12.8-7.6-26.3-4.9-38.3c2.8-12.4,15-21.5,20.4-32.7
				c5.5-11.4,9.6-23,17.4-32.8c7.8-9.8,11.2-25.3,21-33.1c9.8-7.8,21.4-16.2,32.8-21.7c11.2-5.4,27.7,2.4,40.1-0.4
				c12-2.7,23.5-1.5,36.3-1.5c12.8,0,27.5-15.1,39.5-12.4c12.4,2.8,24.9,10.8,36.1,16.1c11.4,5.5,17.3,20.3,27.1,28.1
				c9.8,7.8,27.9,8.6,35.7,18.4c7.8,9.8,12.9,23.5,18.4,34.8c5.4,11.2,2,26.2,4.9,38.6C417.8,224.6,420.3,236.6,420.3,249.5z"/>
		</g>
		<g>
			<path class="st0" d="M398.8,249.5c0,11.7,5.2,22.8,2.7,33.8c-2.6,11.3,0.7,25.2-4.3,35.4c-5,10.4-19.5,15.2-26.6,24.2
				c-7.2,9-16.9,13.9-25.8,21.1c-8.9,7.1-15.8,15.7-26.2,20.7c-10.2,4.9-20,10.1-31.4,12.6c-11,2.5-22,13.7-33.8,13.7
				s-22.8-11.2-33.8-13.7c-11.3-2.6-24-1.8-34.2-6.8c-10.4-5-18.5-14.4-27.4-21.5c-9-7.2-11.3-19.8-18.5-28.8
				c-7.1-8.9-26.6-10.3-31.6-20.7c-4.9-10.2-0.4-24.8-3-36.1c-2.5-11,4.1-22.1,4.1-33.9s-5.6-22.7-3.1-33.6
				c2.6-11.3,10.2-19.8,15.1-30c5-10.4,9.2-19.8,16.3-28.7c7.2-9,6.4-26.4,15.4-33.6c8.9-7.1,26.1-1.9,36.5-6.9
				c10.2-4.9,17.2-19.8,28.5-22.4c11-2.5,23.7-1.9,35.4-1.9c11.7,0,23.4,3.9,34.4,6.4c11.3,2.6,23.4,4.5,33.6,9.4
				c10.4,5,19.4,13.4,28.3,20.5c9,7.2,16.1,16.4,23.3,25.4c7.1,8.9,16.7,16.9,21.7,27.3c4.9,10.2-2.9,24.5-0.3,35.9
				C397,228.2,398.8,237.7,398.8,249.5z"/>
		</g>
		<g>
			<path class="st0" d="M395.2,249.5c0,12.4,0.4,25.8-2.7,37.3c-3.2,11.9-9.6,23.6-15.6,34c-6.1,10.5-18.2,16.8-26.8,25.4
				c-8.6,8.6-18.2,14.9-28.8,21c-10.4,6-18.5,19.5-30.3,22.7c-11.5,3.1-25.2,0.2-37.6,0.2c-12.4,0-26,2.5-37.5-0.5
				c-11.9-3.2-20.9-14.8-31.3-20.8c-10.5-6.1-20.8-12.4-29.4-21s-9.2-22.1-15.3-32.7c-6-10.4-16.3-18-19.4-29.9
				c-3.1-11.5-3-23.2-3-35.6c0-12.4-0.1-24.1,3-35.6c3.2-11.9,6.5-23.5,12.6-33.9c6.1-10.5,16.3-17.5,24.8-26
				c8.6-8.6,18.1-14.3,28.6-20.4c10.4-6,21.1-7.5,33-10.6C231,119.8,241,111,253.4,111c12.4,0,23.8,3.8,35.2,6.9
				c11.9,3.2,24.2,4.6,34.6,10.6c10.5,6.1,17.3,16.8,25.8,25.3c8.6,8.6,15.3,17.5,21.4,28.1c6,10.4,13.5,19.9,16.6,31.7
				C390.2,225.1,395.2,237,395.2,249.5z"/>
		</g>
		<g>
			<path class="st0" d="M370.7,249.5c0,13.4,8.5,27.4,4.5,39.6c-4.1,12.6-14.7,22.2-22.3,32.7c-7.7,10.6-18,17.7-28.5,25.4
				c-10.4,7.6-21.5,11.9-34,15.9c-12.1,3.9-23.5,17.2-36.9,17.2c-13.4,0-24.5-14.3-36.6-18.2c-12.6-4.1-30.2,1.3-40.6-6.3
				c-10.6-7.7-16.4-22.1-24.1-32.6c-7.6-10.4-12.9-22.6-17-35.2c-3.9-12.1,0.4-25,0.4-38.4c0-13.4-6.1-26.9-2.2-39
				c4.1-12.6,11.3-24.1,18.9-34.5c7.7-10.6,13.7-24.6,24.3-32.3c10.4-7.6,24.1-13.9,36.7-18c12.1-3.9,26.8,5.2,40.2,5.2
				c13.4,0,26.4-3.9,38.5,0.1c12.6,4.1,22,13.3,32.5,20.9c10.6,7.7,23.3,13.1,31,23.6c7.6,10.4,14.1,22.5,18.2,35.1
				C377.5,222.5,370.7,236,370.7,249.5z"/>
		</g>
		<g>
			<path class="st0" d="M366,249.5c0,11.9,0.7,25-2.8,35.7c-3.6,11.1-15.3,18.9-22,28.1c-6.8,9.3-11.1,22.1-20.4,28.9
				c-9.2,6.7-23,6-34.1,9.6c-10.7,3.5-21.4,8.5-33.2,8.5c-11.9,0-25.1,2.9-35.8-0.5c-11.1-3.6-17.3-17.7-26.6-24.4
				c-9.3-6.8-20.8-11.2-27.6-20.5c-6.7-9.2-15.3-18.9-18.9-30c-3.5-10.7-6.2-23.5-6.2-35.4c0-11.9,8.2-22.9,11.6-33.6
				c3.6-11.1,5.4-23.5,12.2-32.7c6.8-9.3,18.8-13.7,28.2-20.5c9.2-6.7,17.1-17,28.2-20.6c10.7-3.5,23-2,34.9-2
				c11.9,0,21.5,6.9,32.2,10.4c11.1,3.6,22.2,4.7,31.4,11.5c9.3,6.8,14.4,16.6,21.2,25.9c6.7,9.2,21.9,14.7,25.5,25.8
				C367.3,224.3,366,237.6,366,249.5z"/>
		</g>
	</g>
</g>
</svg>
